<svg width="14" height="9" viewBox="0 0 14 9" fill="none" xmlns="http://www.w3.org/2000/svg">
<path fill-rule="evenodd" clip-rule="evenodd" d="M4.58572 0.517332C4.6381 0.572486 4.67966 0.638007 4.70802 0.710142C4.73638 0.782276 4.75097 0.859608 4.75097 0.937707C4.75097 1.01581 4.73638 1.09314 4.70802 1.16527C4.67966 1.23741 4.6381 1.30293 4.58572 1.35808L1.60784 4.50021L4.58572 7.64233C4.63802 7.69754 4.6795 7.76307 4.70781 7.8352C4.73611 7.90733 4.75068 7.98464 4.75068 8.06271C4.75068 8.14078 4.73611 8.21808 4.70781 8.29021C4.6795 8.36234 4.63802 8.42788 4.58572 8.48308C4.53342 8.53829 4.47133 8.58208 4.403 8.61195C4.33467 8.64183 4.26143 8.65721 4.18747 8.65721C4.11351 8.65721 4.04027 8.64183 3.97194 8.61195C3.9036 8.58208 3.84152 8.53829 3.78922 8.48308L0.414218 4.92058C0.361834 4.86543 0.320274 4.79991 0.291916 4.72777C0.263559 4.65564 0.248962 4.57831 0.248962 4.50021C0.248962 4.42211 0.263559 4.34478 0.291916 4.27264C0.320274 4.20051 0.361834 4.13499 0.414218 4.07983L3.78922 0.517332C3.84147 0.462038 3.90354 0.418168 3.97188 0.388235C4.04022 0.358303 4.11348 0.342896 4.18747 0.342896C4.26146 0.342896 4.33472 0.358303 4.40306 0.388235C4.47139 0.418168 4.53347 0.462038 4.58572 0.517332Z" fill="#56597A" fill-opacity="0.6"/>
<path fill-rule="evenodd" clip-rule="evenodd" d="M0.8125 4.50024C0.8125 4.34277 0.871763 4.19175 0.977253 4.0804C1.08274 3.96905 1.22582 3.90649 1.375 3.90649h23.1875C13.3367 3.90649 13.4798 3.96905 13.5852 4.0804C13.6907 4.19175 13.75 4.34277 13.75 4.50024C13.75 4.65772 13.6907 4.80874 13.5852 4.92009C13.4798 5.03144 13.3367 5.09399 13.1875 5.09399h2.375C1.22582 5.09399 1.08274 5.03144 0.977253 4.92009C0.871763 4.80874 0.8125 4.65772 0.8125 4.50024Z" fill="#56597A" fill-opacity="0.6"/>
</svg>
