<svg width="19" height="11" viewBox="0 0 19 11" fill="none" xmlns="http://www.w3.org/2000/svg">
<path fill-rule="evenodd" clip-rule="evenodd" d="M12.8531 0.25955C12.9257 0.186795 13.0119 0.129072 13.1068 0.0896868C13.2017 0.0503018 13.3035 0.0300293 13.4062 0.0300293C13.509 0.0300293 13.6108 0.0503018 13.7057 0.0896868C13.8006 0.129072 13.8868 0.186795 13.9594 0.25955L18.6469 4.94705C18.7196 5.01962 18.7773 5.10583 18.8167 5.20075C18.8561 5.29566 18.8764 5.39742 18.8764 5.50018C18.8764 5.60294 18.8561 5.70469 18.8167 5.7996C18.7773 5.89452 18.7196 5.98073 18.6469 6.0533L13.9594 10.7408C13.8127 10.8875 13.6137 10.9699 13.4062 10.9699C13.1988 10.9699 12.9998 10.8875 12.8531 10.7408C12.7064 10.5941 12.624 10.3951 12.624 10.1877C12.624 9.98022 12.7064 9.78125 12.8531 9.63455L16.9891 5.50018L12.8531 1.3658C12.7804 1.29323 12.7226 1.20702 12.6833 1.1121C12.6439 1.01719 12.6236 0.915437 12.6236 0.812676C12.6236 0.709914 12.6439 0.608162 12.6833 0.513248C12.7226 0.418334 12.7804 0.332122 12.8531 0.25955Z" fill="#F78CB6"/>
<path fill-rule="evenodd" clip-rule="evenodd" d="M0.125 5.50024C0.125 5.29304 0.20731 5.09433 0.353823 4.94782C0.500336 4.8013 0.69905 4.71899 0.90625 4.71899h27.3125C17.5197 4.71899 17.7184 4.8013 17.8649 4.94782C18.0114 5.09433 18.0938 5.29304 18.0938 5.50024C18.0938 5.70744 18.0114 5.90616 17.8649 6.05267C17.7184 6.19918 17.5197 6.28149 17.3125 6.28149H0.90625C0.69905 6.28149 0.500336 6.19918 0.353823 6.05267C0.20731 5.90616 0.125 5.70744 0.125 5.50024Z" fill="#F78CB6"/>
</svg>
