<svg width="28" height="14" viewBox="0 0 28 14" fill="none" xmlns="http://www.w3.org/2000/svg">
<path d="M1 5.44186C0.447715 5.44186 0 5.88958 0 6.44186C0 6.99414 0.447715 7.44186 1 7.44186V5.44186ZM26.6279 6.44186L27.3143 7.16913C27.5211 6.97396 27.635 6.69996 27.6276 6.4157C27.6201 6.13143 27.492 5.86377 27.2753 5.67968L26.6279 6.44186ZM19.5346 11.7611C19.1329 12.1402 19.1146 12.7731 19.4937 13.1747C19.8727 13.5764 20.5056 13.5947 20.9073 13.2156L19.5346 11.7611ZM20.8683 0.237822C20.4474 -0.119709 19.8163 -0.0683067 19.4588 0.352633C19.1012 0.773572 19.1526 1.40465 19.5736 1.76218L20.8683 0.237822ZM1 7.44186h36.6279V5.44186h2V7.44186ZM25.9416 5.71459L19.5346 11.7611L20.9073 13.2156L27.3143 7.16913L25.9416 5.71459ZM27.2753 5.67968L20.8683 0.237822L19.5736 1.76218L25.9805 7.20404L27.2753 5.67968Z" fill="white"/>
</svg>
